# xmcd CD database file generated by OrangeCD 5.0
#
# Track frame offsets:
#	150
#	13241
#	49092
#
# Disc length: 932 seconds
#
# Revision: 3
# Processed by: cddbd v1.4PL0 Copyright (c) Steve Scherf et al.
# Submitted via: OrangeCD 5.0
#
DISCID=1f03a203
DTITLE=Shania Twain - Up!
DYEAR=2003
DGENRE=Country
TTITLE0=Up! (Green Version)
TTITLE1=I'm Gonna Getcha Good (Sowatt Extended Dance Mix)
TTITLE2=Ka-Ching! (The Simon and Diamond Bhangra Mix)
EXTD=
EXTT0=
EXTT1=
EXTT2=
PLAYORDER=
